<mxfile host="app.diagrams.net" agent="Mozilla/5.0 (Macintosh; Intel Mac OS X 10_15_7) AppleWebKit/537.36 (KHTML, like Gecko) Chrome/127.0.0.0 Safari/537.36" version="24.7.7">
  <diagram name="Page-1" id="_V4vdYrYA61ycNCGEjUU">
    <mxGraphModel dx="968" dy="684" grid="1" gridSize="10" guides="1" tooltips="1" connect="1" arrows="1" fold="1" page="1" pageScale="1" pageWidth="850" pageHeight="1100" math="0" shadow="0">
      <root>
        <mxCell id="0" />
        <mxCell id="1" parent="0" />
        <mxCell id="aKXW6SIpCIjSok21U2cb-1" value="1" style="rounded=0;whiteSpace=wrap;html=1;dashed=1;" vertex="1" parent="1">
          <mxGeometry x="40" y="160" width="40" height="40" as="geometry" />
        </mxCell>
        <mxCell id="aKXW6SIpCIjSok21U2cb-2" value="" style="rounded=0;whiteSpace=wrap;html=1;dashed=1;" vertex="1" parent="1">
          <mxGeometry x="80" y="160" width="40" height="40" as="geometry" />
        </mxCell>
        <mxCell id="aKXW6SIpCIjSok21U2cb-3" value="" style="rounded=0;whiteSpace=wrap;html=1;dashed=1;" vertex="1" parent="1">
          <mxGeometry x="120" y="160" width="40" height="40" as="geometry" />
        </mxCell>
        <mxCell id="aKXW6SIpCIjSok21U2cb-4" value="x" style="rounded=0;whiteSpace=wrap;html=1;dashed=1;" vertex="1" parent="1">
          <mxGeometry x="160" y="160" width="40" height="40" as="geometry" />
        </mxCell>
        <mxCell id="aKXW6SIpCIjSok21U2cb-5" value="" style="rounded=0;whiteSpace=wrap;html=1;dashed=1;" vertex="1" parent="1">
          <mxGeometry x="200" y="160" width="40" height="40" as="geometry" />
        </mxCell>
        <mxCell id="aKXW6SIpCIjSok21U2cb-6" value="" style="rounded=0;whiteSpace=wrap;html=1;dashed=1;" vertex="1" parent="1">
          <mxGeometry x="240" y="160" width="40" height="40" as="geometry" />
        </mxCell>
        <mxCell id="aKXW6SIpCIjSok21U2cb-7" value="" style="rounded=0;whiteSpace=wrap;html=1;dashed=1;" vertex="1" parent="1">
          <mxGeometry x="280" y="160" width="40" height="40" as="geometry" />
        </mxCell>
        <mxCell id="aKXW6SIpCIjSok21U2cb-8" value="" style="rounded=0;whiteSpace=wrap;html=1;dashed=1;" vertex="1" parent="1">
          <mxGeometry x="320" y="160" width="40" height="40" as="geometry" />
        </mxCell>
        <mxCell id="aKXW6SIpCIjSok21U2cb-9" value="" style="rounded=0;whiteSpace=wrap;html=1;dashed=1;" vertex="1" parent="1">
          <mxGeometry x="360" y="160" width="40" height="40" as="geometry" />
        </mxCell>
        <mxCell id="aKXW6SIpCIjSok21U2cb-10" value="" style="rounded=0;whiteSpace=wrap;html=1;dashed=1;" vertex="1" parent="1">
          <mxGeometry x="400" y="160" width="40" height="40" as="geometry" />
        </mxCell>
        <mxCell id="aKXW6SIpCIjSok21U2cb-11" value="" style="rounded=0;whiteSpace=wrap;html=1;dashed=1;" vertex="1" parent="1">
          <mxGeometry x="440" y="160" width="40" height="40" as="geometry" />
        </mxCell>
        <mxCell id="aKXW6SIpCIjSok21U2cb-12" value="" style="rounded=0;whiteSpace=wrap;html=1;dashed=1;" vertex="1" parent="1">
          <mxGeometry x="480" y="160" width="40" height="40" as="geometry" />
        </mxCell>
        <mxCell id="aKXW6SIpCIjSok21U2cb-13" value="" style="rounded=0;whiteSpace=wrap;html=1;dashed=1;" vertex="1" parent="1">
          <mxGeometry x="520" y="160" width="40" height="40" as="geometry" />
        </mxCell>
        <mxCell id="aKXW6SIpCIjSok21U2cb-14" value="" style="rounded=0;whiteSpace=wrap;html=1;dashed=1;" vertex="1" parent="1">
          <mxGeometry x="560" y="160" width="40" height="40" as="geometry" />
        </mxCell>
        <mxCell id="aKXW6SIpCIjSok21U2cb-15" value="" style="rounded=0;whiteSpace=wrap;html=1;dashed=1;" vertex="1" parent="1">
          <mxGeometry x="600" y="160" width="40" height="40" as="geometry" />
        </mxCell>
        <mxCell id="aKXW6SIpCIjSok21U2cb-16" value="y" style="rounded=0;whiteSpace=wrap;html=1;dashed=1;" vertex="1" parent="1">
          <mxGeometry x="640" y="160" width="40" height="40" as="geometry" />
        </mxCell>
        <mxCell id="aKXW6SIpCIjSok21U2cb-21" value="" style="rounded=0;whiteSpace=wrap;html=1;dashed=1;" vertex="1" parent="1">
          <mxGeometry x="680" y="160" width="40" height="40" as="geometry" />
        </mxCell>
        <mxCell id="aKXW6SIpCIjSok21U2cb-22" value="" style="rounded=0;whiteSpace=wrap;html=1;dashed=1;" vertex="1" parent="1">
          <mxGeometry x="720" y="160" width="40" height="40" as="geometry" />
        </mxCell>
        <mxCell id="aKXW6SIpCIjSok21U2cb-23" value="" style="rounded=0;whiteSpace=wrap;html=1;dashed=1;" vertex="1" parent="1">
          <mxGeometry x="760" y="160" width="40" height="40" as="geometry" />
        </mxCell>
        <mxCell id="aKXW6SIpCIjSok21U2cb-24" value="n" style="rounded=0;whiteSpace=wrap;html=1;dashed=1;" vertex="1" parent="1">
          <mxGeometry x="800" y="160" width="40" height="40" as="geometry" />
        </mxCell>
        <mxCell id="aKXW6SIpCIjSok21U2cb-25" value="&lt;font style=&quot;font-size: 14px;&quot;&gt;&lt;font style=&quot;font-size: 14px;&quot; color=&quot;#ff0000&quot;&gt;i&lt;/font&gt;&lt;span style=&quot;font-weight: normal;&quot;&gt; &amp;lt;= x&lt;/span&gt;&lt;/font&gt;" style="rounded=0;whiteSpace=wrap;html=1;fillColor=#f8cecc;strokeColor=none;fontStyle=1" vertex="1" parent="1">
          <mxGeometry x="40" y="200" width="160" height="40" as="geometry" />
        </mxCell>
        <mxCell id="aKXW6SIpCIjSok21U2cb-26" value="&lt;font style=&quot;font-size: 14px;&quot;&gt;&lt;font color=&quot;#ff0000&quot;&gt;j&lt;/font&gt;&lt;span style=&quot;font-weight: normal;&quot;&gt; &amp;gt;= y&lt;/span&gt;&lt;/font&gt;" style="rounded=0;whiteSpace=wrap;html=1;fillColor=#d5e8d4;strokeColor=none;fontStyle=1" vertex="1" parent="1">
          <mxGeometry x="640" y="200" width="200" height="40" as="geometry" />
        </mxCell>
        <mxCell id="aKXW6SIpCIjSok21U2cb-27" value="&lt;font style=&quot;font-size: 14px;&quot;&gt;&lt;span style=&quot;font-weight: normal;&quot;&gt;(x + y) / 2 + 1 &amp;lt;= &lt;/span&gt;&lt;font color=&quot;#ff0000&quot;&gt;j&lt;/font&gt;&lt;span style=&quot;font-weight: normal;&quot;&gt; &amp;lt;= y - 1&lt;/span&gt;&lt;/font&gt;" style="rounded=0;whiteSpace=wrap;html=1;fillColor=#dae8fc;strokeColor=none;fontStyle=1" vertex="1" parent="1">
          <mxGeometry x="440" y="200" width="200" height="40" as="geometry" />
        </mxCell>
        <mxCell id="aKXW6SIpCIjSok21U2cb-29" value="1" style="rounded=0;whiteSpace=wrap;html=1;dashed=1;" vertex="1" parent="1">
          <mxGeometry x="40" y="320" width="40" height="40" as="geometry" />
        </mxCell>
        <mxCell id="aKXW6SIpCIjSok21U2cb-30" value="" style="rounded=0;whiteSpace=wrap;html=1;dashed=1;" vertex="1" parent="1">
          <mxGeometry x="80" y="320" width="40" height="40" as="geometry" />
        </mxCell>
        <mxCell id="aKXW6SIpCIjSok21U2cb-31" value="" style="rounded=0;whiteSpace=wrap;html=1;dashed=1;" vertex="1" parent="1">
          <mxGeometry x="120" y="320" width="40" height="40" as="geometry" />
        </mxCell>
        <mxCell id="aKXW6SIpCIjSok21U2cb-32" value="x" style="rounded=0;whiteSpace=wrap;html=1;dashed=1;" vertex="1" parent="1">
          <mxGeometry x="160" y="320" width="40" height="40" as="geometry" />
        </mxCell>
        <mxCell id="aKXW6SIpCIjSok21U2cb-33" value="" style="rounded=0;whiteSpace=wrap;html=1;dashed=1;" vertex="1" parent="1">
          <mxGeometry x="200" y="320" width="40" height="40" as="geometry" />
        </mxCell>
        <mxCell id="aKXW6SIpCIjSok21U2cb-34" value="" style="rounded=0;whiteSpace=wrap;html=1;dashed=1;" vertex="1" parent="1">
          <mxGeometry x="240" y="320" width="40" height="40" as="geometry" />
        </mxCell>
        <mxCell id="aKXW6SIpCIjSok21U2cb-35" value="" style="rounded=0;whiteSpace=wrap;html=1;dashed=1;" vertex="1" parent="1">
          <mxGeometry x="280" y="320" width="40" height="40" as="geometry" />
        </mxCell>
        <mxCell id="aKXW6SIpCIjSok21U2cb-36" value="" style="rounded=0;whiteSpace=wrap;html=1;dashed=1;" vertex="1" parent="1">
          <mxGeometry x="320" y="320" width="40" height="40" as="geometry" />
        </mxCell>
        <mxCell id="aKXW6SIpCIjSok21U2cb-37" value="" style="rounded=0;whiteSpace=wrap;html=1;dashed=1;" vertex="1" parent="1">
          <mxGeometry x="360" y="320" width="40" height="40" as="geometry" />
        </mxCell>
        <mxCell id="aKXW6SIpCIjSok21U2cb-38" value="" style="rounded=0;whiteSpace=wrap;html=1;dashed=1;" vertex="1" parent="1">
          <mxGeometry x="400" y="320" width="40" height="40" as="geometry" />
        </mxCell>
        <mxCell id="aKXW6SIpCIjSok21U2cb-39" value="" style="rounded=0;whiteSpace=wrap;html=1;dashed=1;" vertex="1" parent="1">
          <mxGeometry x="440" y="320" width="40" height="40" as="geometry" />
        </mxCell>
        <mxCell id="aKXW6SIpCIjSok21U2cb-40" value="" style="rounded=0;whiteSpace=wrap;html=1;dashed=1;" vertex="1" parent="1">
          <mxGeometry x="480" y="320" width="40" height="40" as="geometry" />
        </mxCell>
        <mxCell id="aKXW6SIpCIjSok21U2cb-41" value="" style="rounded=0;whiteSpace=wrap;html=1;dashed=1;" vertex="1" parent="1">
          <mxGeometry x="520" y="320" width="40" height="40" as="geometry" />
        </mxCell>
        <mxCell id="aKXW6SIpCIjSok21U2cb-42" value="" style="rounded=0;whiteSpace=wrap;html=1;dashed=1;" vertex="1" parent="1">
          <mxGeometry x="560" y="320" width="40" height="40" as="geometry" />
        </mxCell>
        <mxCell id="aKXW6SIpCIjSok21U2cb-43" value="" style="rounded=0;whiteSpace=wrap;html=1;dashed=1;" vertex="1" parent="1">
          <mxGeometry x="600" y="320" width="40" height="40" as="geometry" />
        </mxCell>
        <mxCell id="aKXW6SIpCIjSok21U2cb-44" value="y" style="rounded=0;whiteSpace=wrap;html=1;dashed=1;" vertex="1" parent="1">
          <mxGeometry x="640" y="320" width="40" height="40" as="geometry" />
        </mxCell>
        <mxCell id="aKXW6SIpCIjSok21U2cb-45" value="" style="rounded=0;whiteSpace=wrap;html=1;dashed=1;" vertex="1" parent="1">
          <mxGeometry x="680" y="320" width="40" height="40" as="geometry" />
        </mxCell>
        <mxCell id="aKXW6SIpCIjSok21U2cb-46" value="" style="rounded=0;whiteSpace=wrap;html=1;dashed=1;" vertex="1" parent="1">
          <mxGeometry x="720" y="320" width="40" height="40" as="geometry" />
        </mxCell>
        <mxCell id="aKXW6SIpCIjSok21U2cb-47" value="" style="rounded=0;whiteSpace=wrap;html=1;dashed=1;" vertex="1" parent="1">
          <mxGeometry x="760" y="320" width="40" height="40" as="geometry" />
        </mxCell>
        <mxCell id="aKXW6SIpCIjSok21U2cb-48" value="n" style="rounded=0;whiteSpace=wrap;html=1;dashed=1;" vertex="1" parent="1">
          <mxGeometry x="800" y="320" width="40" height="40" as="geometry" />
        </mxCell>
        <mxCell id="aKXW6SIpCIjSok21U2cb-49" value="&lt;font style=&quot;font-size: 14px;&quot;&gt;&lt;span style=&quot;font-weight: normal;&quot;&gt;x &amp;lt; &lt;/span&gt;&lt;font color=&quot;#ff0000&quot;&gt;i&lt;/font&gt;&lt;span style=&quot;font-weight: normal;&quot;&gt; &amp;lt; (x + y) / 2&lt;/span&gt;&lt;/font&gt;" style="rounded=0;whiteSpace=wrap;html=1;fillColor=#f8cecc;strokeColor=none;fontStyle=1" vertex="1" parent="1">
          <mxGeometry x="200" y="360" width="200" height="40" as="geometry" />
        </mxCell>
        <mxCell id="aKXW6SIpCIjSok21U2cb-50" value="&lt;font style=&quot;font-size: 14px;&quot;&gt;&lt;font color=&quot;#ff0000&quot;&gt;j&lt;/font&gt;&lt;span style=&quot;font-weight: normal;&quot;&gt; &amp;gt;= y&lt;/span&gt;&lt;/font&gt;" style="rounded=0;whiteSpace=wrap;html=1;fillColor=#d5e8d4;strokeColor=none;fontStyle=1" vertex="1" parent="1">
          <mxGeometry x="640" y="360" width="200" height="40" as="geometry" />
        </mxCell>
        <mxCell id="aKXW6SIpCIjSok21U2cb-51" value="&lt;font style=&quot;font-size: 14px;&quot;&gt;i + (y - x +1) / 2 + 1 &amp;lt;= &lt;b&gt;&lt;font color=&quot;#ff0000&quot;&gt;j&lt;/font&gt;&lt;/b&gt; &amp;lt;= y - 1&lt;/font&gt;" style="rounded=0;whiteSpace=wrap;html=1;fillColor=#dae8fc;strokeColor=none;fontStyle=0" vertex="1" parent="1">
          <mxGeometry x="440" y="360" width="200" height="40" as="geometry" />
        </mxCell>
      </root>
    </mxGraphModel>
  </diagram>
</mxfile>
